<svg width="18" height="19" viewBox="0 0 18 19" fill="none" xmlns="http://www.w3.org/2000/svg">
<path fill-rule="evenodd" clip-rule="evenodd" d="M1.96447 2.75826C1.34486 3.38213 0.852306 4.12492 0.515164 4.94386C0.178022 5.76279 0.00295313 6.64169 3.70401e-05 7.52996C-0.00287905 8.41822 0.166416 9.2983 0.498173 10.1195C0.829931 10.9407 1.3176 11.6869 1.9331 12.315C2.54859 12.9431 3.27976 13.4407 4.08451 13.7793C4.88925 14.1178 5.75167 14.2906 6.62211 14.2876C7.49255 14.2846 8.35382 14.106 9.15632 13.7619C9.95882 13.4179 10.6867 12.9153 11.2981 12.283C12.5221 11.017 13.2058 9.3084 13.2 7.52996C13.1941 5.75151 12.4992 4.04761 11.2669 2.79006C10.0346 1.5325 8.36487 0.823379 6.62211 0.817421C4.87935 0.811463 3.20502 1.50915 1.96447 2.75826ZM9.60127 10.5514C8.81358 11.3552 7.74524 11.8068 6.63127 11.8068C5.5173 11.8068 4.44896 11.3552 3.66127 10.5514C2.87358 9.7476 2.43106 8.65739 2.43106 7.52061C2.43106 6.38384 2.87358 5.29362 3.66127 4.4898C4.44896 3.68598 5.5173 3.2344 6.63127 3.2344C7.74524 3.2344 8.81358 3.68598 9.60127 4.4898C10.389 5.29362 10.8315 6.38384 10.8315 7.52061C10.8315 8.65739 10.389 9.7476 9.60127 10.5514Z" fill="#126329"/>
<path d="M10.0274 13.5785C9.86018 13.4081 9.72755 13.2058 9.63706 12.9831C9.54657 12.7605 9.5 12.5218 9.5 12.2808C9.5 12.0398 9.54657 11.8012 9.63706 11.5785C9.72755 11.3558 9.86018 11.1535 10.0274 10.9831C10.1946 10.8127 10.3931 10.6775 10.6115 10.5853C10.83 10.493 11.0641 10.4456 11.3006 10.4456C11.537 10.4456 11.7712 10.493 11.9896 10.5853C12.2081 10.6775 12.4066 10.8127 12.5738 10.9831L16.8158 15.308C16.9877 15.4773 17.1248 15.6797 17.2192 15.9035C17.3135 16.1274 17.3631 16.3681 17.3652 16.6117C17.3673 16.8553 17.3218 17.0969 17.2313 17.3224C17.1407 17.5479 17.0071 17.7527 16.8381 17.925C16.6691 18.0972 16.4681 18.2335 16.2469 18.3257C16.0257 18.418 15.7887 18.4644 15.5497 18.4623C15.3107 18.4602 15.0745 18.4095 14.8548 18.3134C14.6352 18.2172 14.4366 18.0775 14.2706 17.9022L10.0274 13.5785Z" fill="#126329"/>
</svg>
